<?xml version="1.0" encoding="utf-8"?>
<!-- Generator: Adobe Illustrator 23.0.3, SVG Export Plug-In . SVG Version: 6.00 Build 0)  -->
<svg version="1.1"
	 id="svg7025" xmlns:cc="http://creativecommons.org/ns#" xmlns:dc="http://purl.org/dc/elements/1.1/" xmlns:inkscape="http://www.inkscape.org/namespaces/inkscape" xmlns:rdf="http://www.w3.org/1999/02/22-rdf-syntax-ns#" xmlns:sodipodi="http://sodipodi.sourceforge.net/DTD/sodipodi-0.dtd" xmlns:svg="http://www.w3.org/2000/svg"
	 xmlns="http://www.w3.org/2000/svg" xmlns:xlink="http://www.w3.org/1999/xlink" x="0px" y="0px" viewBox="0 0 370 340"
	 style="enable-background:new 0 0 370 340;" xml:space="preserve">
<style type="text/css">
	.st0{fill:#FFFFFF;}
	.st1{fill:#2DB300;}
	.st2{fill:#1A700D;}
	.st3{fill:#1F262A;stroke:#000000;stroke-width:0.102;}
</style>
<sodipodi:namedview  bordercolor="#666666" borderopacity="1" gridtolerance="10" guidetolerance="10" id="namedview7027" inkscape:current-layer="svg7025" inkscape:cx="150" inkscape:cy="150" inkscape:pageopacity="0" inkscape:pageshadow="2" inkscape:window-height="668" inkscape:window-maximized="1" inkscape:window-width="1754" inkscape:window-x="658" inkscape:window-y="306" inkscape:zoom="1" objecttolerance="10" pagecolor="#ffffff" showgrid="false">
	</sodipodi:namedview>
<title  id="title7021">eye-background</title>
<g id="use7023">
	<path id="path7012_2_" inkscape:connector-curvature="0" class="st0" d="M299.9,97.06c0-14.13-11.61-26.57-28.75-30.77
		c-31.25-7.65-62.45-15.41-93.78-22.86c-8.97-2.14-18.15-3.28-27.38-3.39c-9.22,0.1-18.4,1.24-27.38,3.37
		C91.3,50.86,60.09,58.62,28.85,66.27C11.71,70.47,0.1,82.91,0.1,97.04c-0.01,32.94-0.26,65.82,0.17,98.71
		c0.12,8.87,1.75,17.81,3.75,26.55c4.44,19.13,17.11,35.4,30.23,51.36c17.53,21.24,37.75,40.69,65.52,54.23
		C115.89,335.76,132.63,340,150,340s34.1-4.25,50.23-12.13c27.77-13.54,47.99-32.95,65.52-54.23
		c13.12-15.95,25.79-32.23,30.23-51.35c2.03-8.74,3.63-17.68,3.75-26.55C300.16,162.86,299.91,129.97,299.9,97.06z"/>
	<path id="path7014_2_" inkscape:connector-curvature="0" class="st1" d="M271.73,66.23c-30.86-7.69-61.58-15.68-92.58-23
		c-18.6-4.37-37.96-4.31-56.53,0.18C91.3,50.86,60.09,58.62,28.85,66.27C11.71,70.46,0.1,82.91,0.1,97.04
		c0,32.94-0.26,65.82,0.17,98.71c0.12,8.87,1.75,17.81,3.75,26.55c4.44,19.13,17.11,35.4,30.2,51.33
		c17.53,21.25,37.75,40.69,65.52,54.24c25.44,12.41,52.36,15.91,80.92,7.61c12.42-3.58,24.2-9.1,34.91-16.34
		c-2.04-0.37-3.25-0.67-4.48-0.79c-19.11-1.71-37.92-5.84-55.99-12.29c-55.14-20.12-90.29-52.32-95.14-101.76
		c-3.14-32.06,10.19-59.88,38.41-82.99c31.26-25.59,70.8-37.46,114.42-40.85c24.01-1.86,48.33-1.12,72.52-1.54c2.09,0,4.18,0,7.38,0
		C287.19,72.62,279.86,68.19,271.73,66.23z"/>
	<path id="path7016_2_" inkscape:connector-curvature="0" class="st2" d="M296.54,141.55c-19.3-0.06-38.58-0.26-57.87,0
		c-20.27,0.28-39.15,4.5-55.82,13.94c-29.17,16.51-38.26,47.5-20.84,71.5c11.78,16.22,30.78,24.45,52.88,28.74
		c19.86,3.86,40.17,2.43,60.33,2.51c1.58-0.22,3.02-1.05,4-2.31c11.77-15.62,19.1-32.52,20.1-50.61
		c1.11-20.59,0.47-41.22,0.56-61.84c-0.09-0.59-0.26-1.17-0.5-1.71C298.37,141.67,297.48,141.52,296.54,141.55z"/>
</g>
<path id="path7574" inkscape:connector-curvature="0" class="st3" d="M140.1,339.19c-38.81-5.45-71.6-25.61-103.39-63.57
	c-23.45-28-30.59-41.45-34.37-64.73c-1.21-7.46-1.52-20.54-1.51-64.46l0.01-55.1l2.42-5.1c3.11-6.56,9.83-12.99,16.98-16.25
	c3.11-1.42,27.21-7.81,53.57-14.22s50.45-12.27,53.54-13.04c3.78-0.94,11.79-1.38,24.49-1.35l18.88,0.04l21.94,5.35
	c48.44,11.8,82.41,20.81,87.24,23.15c2.81,1.35,6.71,3.84,8.67,5.52l3.57,3.06l-29.08,0.06c-45.33,0.09-68.45,2.14-93.88,8.34
	c-47.37,11.55-84.94,37.86-101.07,70.76c-6.79,13.87-8.5,21.42-8.55,37.76c-0.14,48.32,28.86,84.03,87.68,107.97
	c17.8,7.25,43.81,13.68,61.51,15.21c1.84,0.16,3.4,0.75,3.46,1.31c0.18,1.53-16.91,10.24-25.95,13.23
	c-4.36,1.44-11.08,3.28-14.93,4.09C164.03,338.76,145.38,339.94,140.1,339.19L140.1,339.19z"/>
</svg>
